<svg width="20" height="20" viewBox="0 0 20 20" fill="none" xmlns="http://www.w3.org/2000/svg">
    <path d="M18.6207 8.62069H11.3793V1.37931C11.3793 0.62069 10.7586 0 10 0C9.24138 0 8.62069 0.62069 8.62069 1.37931V8.62069H1.37931C0.62069 8.62069 0 9.24138 0 10C0 10.7586 0.62069 11.3793 1.37931 11.3793H8.62069V18.6207C8.62069 19.3793 9.24138 20 10 20C10.7586 20 11.3793 19.3793 11.3793 18.6207V11.3793H18.6207C19.3793 11.3793 20 10.7586 20 10C20 9.24138 19.3793 8.62069 18.6207 8.62069Z" fill="#545453"/>
</svg>
