<svg width="26" height="26" viewBox="0 0 26 26" fill="none" xmlns="http://www.w3.org/2000/svg">
    <path d="M9.28571 0C5.70686 0 2.78571 2.92115 2.78571 6.5C2.78571 8.73678 3.92893 10.727 5.65848 11.8973C2.34614 13.3179 0 16.604 0 20.4286H1.85714C1.85714 16.3144 5.17152 13 9.28571 13C10.5635 13 11.7506 13.3323 12.7969 13.8996C11.766 15.1752 11.1429 16.81 11.1429 18.5714C11.1429 22.6631 14.4797 26 18.5714 26C22.6631 26 26 22.6631 26 18.5714C26 14.4797 22.6631 11.1429 18.5714 11.1429C16.9491 11.1429 15.4428 11.6765 14.2188 12.5647C13.8079 12.3066 13.3643 12.0906 12.9129 11.8973C14.6425 10.727 15.7857 8.73678 15.7857 6.5C15.7857 2.92115 12.8646 0 9.28571 0ZM9.28571 1.85714C11.8609 1.85714 13.9286 3.92482 13.9286 6.5C13.9286 9.07518 11.8609 11.1429 9.28571 11.1429C6.71054 11.1429 4.64286 9.07518 4.64286 6.5C4.64286 3.92482 6.71054 1.85714 9.28571 1.85714ZM18.5714 13C21.6594 13 24.1429 15.4834 24.1429 18.5714C24.1429 21.6594 21.6594 24.1429 18.5714 24.1429C15.4834 24.1429 13 21.6594 13 18.5714C13 15.4834 15.4834 13 18.5714 13ZM17.6429 14.8571V17.6429H14.8571V19.5H17.6429V22.2857H19.5V19.5H22.2857V17.6429H19.5V14.8571H17.6429Z" fill="#545453"/>
</svg>
