<svg width="250" height="250" viewBox="0 0 250 250" fill="none" xmlns="http://www.w3.org/2000/svg">
    <rect width="250" height="250" fill="#C49DFA"/>
    <path fill-rule="evenodd" clip-rule="evenodd" d="M99 97H151C152.105 97 153 97.8954 153 99V133.133L132.345 128.314C131.451 128.105 130.536 128 129.619 128H120.381C119.464 128 118.549 128.105 117.655 128.314L97 133.133V99C97 97.8954 97.8954 97 99 97ZM95 99C95 96.7909 96.7909 95 99 95H151C153.209 95 155 96.7909 155 99V151C155 153.209 153.209 155 151 155H99C96.7909 155 95 153.209 95 151V99ZM116.818 111.364C116.818 114.376 114.376 116.818 111.363 116.818C108.351 116.818 105.909 114.376 105.909 111.364C105.909 108.351 108.351 105.909 111.363 105.909C114.376 105.909 116.818 108.351 116.818 111.364Z" fill="#ffffff"/>
</svg>
