<svg width="20" height="20" viewBox="0 0 20 20" fill="none" xmlns="http://www.w3.org/2000/svg">
    <path d="M0.773346 20C0.672155 20.0006 0.571844 19.9812 0.478165 19.9429C0.384486 19.9046 0.299281 19.8482 0.227436 19.7769C0.155369 19.7054 0.0981682 19.6204 0.0591328 19.5267C0.0200974 19.4329 0 19.3324 0 19.2309C0 19.1293 0.0200974 19.0288 0.0591328 18.9351C0.0981682 18.8414 0.155369 18.7563 0.227436 18.6848L18.6807 0.226189C18.8255 0.0813625 19.0219 0 19.2267 0C19.4314 0 19.6278 0.0813625 19.7726 0.226189C19.9173 0.371015 19.9987 0.567441 19.9987 0.772256C19.9987 0.977071 19.9173 1.1735 19.7726 1.31832L1.31926 19.7769C1.24741 19.8482 1.16221 19.9046 1.06853 19.9429C0.974848 19.9812 0.874537 20.0006 0.773346 20Z" fill="white"/>
    <path d="M19.2266 20C19.1254 20.0006 19.0251 19.9812 18.9314 19.9429C18.8377 19.9046 18.7525 19.8482 18.6807 19.7769L0.227344 1.31832C0.0825596 1.1735 0.0012207 0.977071 0.0012207 0.772256C0.0012207 0.567441 0.0825596 0.371015 0.227344 0.226188C0.372128 0.0813623 0.568498 1.52599e-09 0.773254 0C0.978011 -1.52599e-09 1.17438 0.0813623 1.31916 0.226188L19.7725 18.6848C19.8445 18.7563 19.9017 18.8414 19.9408 18.9351C19.9798 19.0288 19.9999 19.1293 19.9999 19.2309C19.9999 19.3324 19.9798 19.4329 19.9408 19.5267C19.9017 19.6204 19.8445 19.7054 19.7725 19.7769C19.7006 19.8482 19.6154 19.9046 19.5217 19.9429C19.4281 19.9812 19.3278 20.0006 19.2266 20Z" fill="white"/>
</svg>
