<svg width="36" height="36" viewBox="0 0 36 36" fill="none" xmlns="http://www.w3.org/2000/svg">
    <path d="M13.848 0C8.5108 0 4.15441 4.30918 4.15441 9.58858C4.15441 12.8882 5.85932 15.8241 8.43865 17.5505C3.49886 19.6461 0 24.4937 0 30.1356H2.76961C2.76961 24.0664 7.71243 19.1772 13.848 19.1772C16.8199 19.1772 19.4744 20.3806 21.4645 22.2592L15.2328 28.4233L14.9299 28.7229L14.8434 29.151L13.8913 33.9881L13.4586 36L15.4925 35.5719L20.3826 34.6302L20.8153 34.5446L21.1183 34.2449L34.7932 20.7182C36.4023 19.1265 36.4023 16.4882 34.7932 14.8966C33.9886 14.1007 32.9155 13.698 31.8505 13.698C30.7855 13.698 29.7123 14.1007 28.9078 14.8966L23.4551 20.2901C22.2506 19.1424 20.8183 18.2111 19.2574 17.5505C21.8367 15.8241 23.5417 12.8882 23.5417 9.58858C23.5417 4.30918 19.1853 0 13.848 0ZM13.848 2.7396C17.6885 2.7396 20.7721 5.78977 20.7721 9.58858C20.7721 13.3874 17.6885 16.4376 13.848 16.4376C10.0076 16.4376 6.92402 13.3874 6.92402 9.58858C6.92402 5.78977 10.0076 2.7396 13.848 2.7396ZM31.8505 16.4376C32.2007 16.4376 32.5702 16.5502 32.8458 16.8228C33.3819 17.3531 33.3958 18.1607 32.8891 18.7063L32.8458 18.7491L19.4305 32.019L16.9638 32.5327L17.4831 30.0927L30.8984 16.8228C31.174 16.5502 31.5002 16.4376 31.8505 16.4376Z" fill="white"/>
</svg>
