<svg width="33" height="35" viewBox="0 0 33 35" fill="none" xmlns="http://www.w3.org/2000/svg">
    <path fill-rule="evenodd" clip-rule="evenodd" d="M25.5888 20.2344L17.7759 28.5208L16.8036 27.4896L24.6165 19.2032L25.5888 20.2344Z" fill="white"/>
    <path fill-rule="evenodd" clip-rule="evenodd" d="M22.9962 17.4847L15.1833 25.7711L14.211 24.7399L22.0239 16.4535L22.9962 17.4847Z" fill="white"/>
    <path fill-rule="evenodd" clip-rule="evenodd" d="M17.4866 11.6412L9.67369 19.9276L8.70142 18.8964L16.5143 10.61L17.4866 11.6412Z" fill="white"/>
    <path fill-rule="evenodd" clip-rule="evenodd" d="M14.894 8.89146L7.08107 17.1779L6.1088 16.1467L13.9217 7.86026L14.894 8.89146Z" fill="white"/>
    <path fill-rule="evenodd" clip-rule="evenodd" d="M14.8939 8.89126C17.5907 6.03098 21.9534 6.02067 24.6383 8.86825C27.3232 11.7158 27.3134 16.343 24.6166 19.2032L25.5889 20.2344C28.8251 16.8021 28.8367 11.2495 25.6149 7.83245C22.3931 4.41536 17.1578 4.42772 13.9216 7.86007L14.8939 8.89126Z" fill="white"/>
    <path fill-rule="evenodd" clip-rule="evenodd" d="M9.67369 19.9276L8.70142 18.8964C6.18437 21.566 6.1753 25.8846 8.68116 28.5424C11.187 31.2001 15.2589 31.1905 17.776 28.5209L16.8037 27.4897C14.826 29.5872 11.6267 29.5948 9.65777 27.5066C7.68888 25.4183 7.69601 22.0251 9.67369 19.9276Z" fill="white"/>
    <path fill-rule="evenodd" clip-rule="evenodd" d="M22.9959 17.4843C24.7938 15.5775 24.8003 12.4927 23.0104 10.5943C21.2205 8.69594 18.312 8.70281 16.5141 10.6097L17.4864 11.6409C18.7449 10.3061 20.7808 10.3013 22.0338 11.6301C23.2867 12.959 23.2822 15.1183 22.0237 16.4531L22.9959 17.4843Z" fill="white"/>
</svg>
