<svg width="36" height="36" viewBox="0 0 36 36" fill="none" xmlns="http://www.w3.org/2000/svg">
    <path d="M26.1821 22.6902C26.154 22.7182 26.1219 22.742 26.0939 22.7681H26.1821V22.6902ZM21.3718 25.677C19.8281 26.2384 18.1425 26.5617 16.3636 26.5617C9.1334 26.5617 3.27289 21.4653 3.27289 15.1785C3.27289 8.89101 9.13351 3.79446 16.3636 3.79446C23.5929 3.79446 29.4543 8.89089 29.4543 15.1785C29.4543 15.8339 29.3763 16.4736 29.2539 17.0995C29.322 17.0949 29.3859 17.0758 29.4543 17.0758C30.6242 17.0758 31.6421 17.793 32.2214 18.8619C32.5406 17.6814 32.7272 16.4517 32.7272 15.1785C32.7272 6.79523 25.4006 0 16.3636 0C7.32619 0.000120843 0 6.79535 0 15.1786C0 20.7927 3.29561 25.6843 8.18175 28.3101V34.1509C8.18175 36.2478 9.09224 36.6162 10.2155 34.9737L13.6414 30.1305C14.5284 30.2686 15.4341 30.3572 16.3635 30.3572C18.4601 30.3572 20.4545 29.9775 22.2947 29.3068C21.6674 28.6147 21.2727 27.6448 21.2727 26.5629C21.2728 26.2556 21.312 25.9632 21.3718 25.677ZM34.3636 24.6644H31.09V20.8697C31.09 19.8217 30.3574 18.9723 29.454 18.9723C28.5502 18.9723 27.8176 19.8217 27.8176 20.8697V24.6644H24.544C23.641 24.6644 22.9076 25.5138 22.9076 26.5617C22.9076 27.6092 23.641 28.4591 24.544 28.4591H27.8185V32.2533C27.8185 33.3013 28.5502 34.1507 29.4544 34.1507C30.3574 34.1507 31.0908 33.3013 31.0908 32.2533V28.4592H34.3636C35.2666 28.4592 36 27.6093 36 26.5618C36 25.5139 35.2666 24.6644 34.3636 24.6644Z" fill="#545453"/>
</svg>
