<svg width="36" height="36" viewBox="0 0 36 36" fill="none" xmlns="http://www.w3.org/2000/svg">
    <path d="M20.14 36H15.6211C14.6736 36 13.8712 35.32 13.716 34.3846L13.1851 31.1232C12.9441 31.0354 12.7052 30.9394 12.4704 30.8393L9.84432 32.8387C9.11737 33.3901 8.0127 33.335 7.34696 32.7039L4.06757 29.5977C3.41618 28.9789 3.2794 27.9701 3.74286 27.2002L5.56638 24.1696C5.35195 23.7203 5.15997 23.2567 4.9946 22.785L1.51513 22.0191C0.620724 21.821 0 21.045 0 20.1321L0.00208296 15.6127C0.00416593 14.661 0.686106 13.8605 1.62136 13.7093L5.1683 13.1314C5.30925 12.7761 5.46639 12.4248 5.63592 12.0817L3.68581 8.88974C3.2161 8.12184 3.34686 7.11507 3.9942 6.4922L7.25925 3.36357C7.91469 2.72645 9.01334 2.65701 9.75244 3.21242L12.7215 5.44249C12.8603 5.3874 12.9992 5.33428 13.1421 5.28324L13.7179 1.61541C13.871 0.680051 14.6736 0 15.6211 0H20.14C21.0405 0 21.8327 0.637114 22.0247 1.51738L22.8517 5.28116C22.9804 5.32815 23.107 5.37305 23.2336 5.42409L26.4129 3.26543C27.146 2.77124 28.1833 2.85295 28.8245 3.46148L32.106 6.56765C32.7983 7.22317 32.9105 8.26882 32.3736 9.055L30.3438 12.0428C30.5235 12.4023 30.6869 12.7698 30.8339 13.1435L34.3828 13.7235C35.32 13.8766 36 14.6772 36 15.6268L35.9979 20.1462C35.9979 21.0469 35.3588 21.8392 34.4807 22.0291L31.0012 22.7909C30.8522 23.2177 30.6827 23.6343 30.4928 24.0387L32.4306 26.8548C32.9677 27.637 32.8614 28.6826 32.1774 29.3402L28.9164 32.4689C28.2773 33.0835 27.2421 33.1714 26.5048 32.6793L23.6624 30.7759C23.3704 30.9066 23.0702 31.0291 22.7599 31.1415L22.0268 34.4846C21.8327 35.3629 21.0405 36 20.14 36ZM15.8783 33.7699H19.8989L20.7157 30.0511C20.8014 29.661 21.0893 29.3465 21.4691 29.226C22.0879 29.032 22.68 28.7971 23.2476 28.5072C23.609 28.3234 24.0419 28.3499 24.3747 28.5745L27.5439 30.6964L30.4455 27.9129L28.2811 24.7679C28.0463 24.4249 28.0197 23.9816 28.2157 23.6141C28.5629 22.9605 28.8508 22.258 29.0714 21.5248C29.1878 21.1368 29.5043 20.8427 29.9004 20.757L33.7658 19.9094L33.7679 15.8884L29.8289 15.2431C29.4225 15.1757 29.0856 14.8897 28.9529 14.4997C28.716 13.8012 28.4281 13.1559 28.0707 12.5269C27.8624 12.1572 27.8788 11.6997 28.1198 11.3506L30.3843 8.01363L27.4644 5.24852L24.2484 7.43161C24.2137 7.47454 24.1789 7.51123 24.1402 7.54398C23.8093 7.84015 23.3275 7.90959 22.9252 7.71967C22.4739 7.5073 22.0002 7.34388 21.5204 7.19273C21.0712 7.0498 20.7608 6.63721 20.7445 6.16548L19.8971 2.23019H15.8784L15.2271 6.21652L15.1841 6.2083C15.084 6.62494 14.8268 7.07619 14.4694 7.19065C13.9732 7.3499 13.4872 7.51945 13.0237 7.742C12.6113 7.93597 12.1274 7.86653 11.7925 7.5603C11.7618 7.5338 11.7313 7.50105 11.7027 7.46841L8.61711 5.1505L5.71542 7.93204L7.77987 11.3078C7.80441 11.3404 7.83091 11.3731 7.85139 11.4079C8.08422 11.757 8.1025 12.2063 7.89837 12.5719C7.55943 13.1785 7.27348 13.8238 7.0469 14.4855C6.91417 14.8755 6.57719 15.1615 6.16882 15.2267L2.2319 15.87L2.22981 19.891L6.09522 20.7406C6.48936 20.8285 6.80782 21.1226 6.92424 21.5105C7.14885 22.2682 7.45111 22.9993 7.82061 23.6834C8.00842 24.0306 7.99824 24.4513 7.79411 24.7882L5.77456 28.1415L8.69256 30.9066L11.6514 28.656C11.9884 28.3987 12.4478 28.3558 12.8255 28.5457C13.3666 28.8153 13.9282 29.0358 14.5121 29.2196C14.9124 29.3462 15.2084 29.6873 15.2779 30.1019L15.8783 33.7699ZM18.1164 24.7863C14.4837 24.7863 11.5269 21.8292 11.5269 18.1961C11.5269 14.561 14.4837 11.6039 18.1164 11.6039C21.751 11.6039 24.7078 14.561 24.7078 18.1961C24.7099 21.8292 21.7531 24.7863 18.1164 24.7863ZM18.1164 13.834C15.713 13.834 13.7567 15.7905 13.7567 18.1961C13.7567 20.5998 15.713 22.5563 18.1164 22.5563C20.5218 22.5563 22.478 20.5998 22.478 18.1961C22.478 15.7904 20.5218 13.834 18.1164 13.834Z" fill="#545453"/>
</svg>
