<svg width="16" height="16" viewBox="0 0 16 16" fill="none" xmlns="http://www.w3.org/2000/svg">
    <path d="M8 16C12.4183 16 16 12.4183 16 8C16 3.58172 12.4183 0 8 0C3.58172 0 0 3.58172 0 8C0 12.4183 3.58172 16 8 16Z" fill="#FDFDFD"/>
    <path d="M2.15947 4.375H3.03602L5.27197 9.93905L7.50322 4.375H8.38447L5.60946 11.2H4.92509L2.15947 4.375ZM1.87354 4.375H2.64698L2.77354 8.53749V11.2H1.87354V4.375ZM7.89229 4.375H8.66571V11.2H7.76571V8.53749L7.89229 4.375ZM14.5907 10.4641V11.2H10.9767V10.4641H14.5907ZM11.1595 4.375V11.2H10.2548V4.375H11.1595ZM14.1126 7.30936V8.04531H10.9767V7.30936H14.1126ZM14.5438 4.375V5.11562H10.9767V4.375H14.5438Z" fill="#663399"/>
</svg>
